<svg xmlns="http://www.w3.org/2000/svg" width="48" height="48" viewBox="0 0 48 48" fill="none">
  <defs>
    <linearGradient id="ember" x1="17" y1="7" x2="32" y2="40" gradientUnits="userSpaceOnUse"><stop stop-color="#ffbb70"/><stop offset="1" stop-color="#f06c3f"/></linearGradient>
  </defs>
  <rect x="1" y="1" width="46" height="46" rx="14" fill="#262425"/>
  <rect x="1.5" y="1.5" width="45" height="45" rx="13.5" stroke="#fff" stroke-opacity=".12"/>
  <path d="M25 7c1 9 11 12 11 21 0 7-5 12-13 12H11l3.5-7C10 27 14 20 18 16c-.2 4 1.5 7 4 7 5-3 1-9 3-16Z" fill="url(#ember)"/>
  <path d="M25 25c0 3 4 4 3 7-1.3 4-8 3.5-8-.5 0-2.4 3-3.6 5-6.5Z" fill="#fff2df"/>
</svg>
